<svg id="南投" xmlns="http://www.w3.org/2000/svg" viewBox="0 0 161.22 170.73"><defs><style>.cls-1{fill:#93b15a;stroke:#231815;stroke-linejoin:round;}</style></defs><path class="cls-1" d="M285.87,328.49a18.08,18.08,0,0,1,8.31,2.23c4.34,2.36,11.78,3.35,15.5,3.48s5.82,1,7.81-1.49,2.6-6.45,4.83-10,3.23-5,5.21-8.56,3.47-6.82,6.94-5.45,7.19,5,9.67,1.86,3.22-7.07,6.94-6.33a17.4,17.4,0,0,0,12-1.48c4.21-2.24,2.6.49,5.83-1.37s4.34-4.71,8.43-5.2,5.2-1.37,5.58-4a4.06,4.06,0,0,1,4.21-3.6c1.61.13,6.08.13,8.8-3.34s4.59-4,8.68,1.48S412.08,297,417,297.25s15.37.87,18.72,1.61l1.76.21c2,.17,2.35,6.24,2.26,9.46s-5.46,9.19-8.45,13.33a13.73,13.73,0,0,0-2.64,10.83c.53,2.73,1.85,4.58,2,7.22s-1.06,11.53-1.68,15.49-7,14.7-9.68,19.28.7,7.22,4.05,8.72,2.55,8.8,2.2,11-3.35,18-4.4,21.39-5.11,3.43-8.19,6.52-2.46,7.48-3.52,9.77-7.92,1.58-11.36,2.11-4.57,4.23-5.1,6.51-6.16,11.1-9.77,11.36-22.56.79-24-1-6.83-1.26-11.21-1.33-5-4.38-8.71-8.42-2.93-11.08-3.76-13-5.92-6.27-10-6.62-11.08-1.53-10.17-3.55-3.07-.7-6.06-1.11-4.53,1.25-8.29,1.74-7.94-.84-10-.84.42-11.42.35-14.63-.21-8.49.48-10.51-1-1.47-1.53-3.49S286,386.6,286,386.6c4.08-.19,3.69-1.92,7.15-2.3a7.21,7.21,0,0,0,5.57-3.85c.77-1.15,3.08-4-4-3.65s-12.21-7.36-11.4-12.72.13-18.92-.94-21.33-3.22-5.75-2.69-8.31.54-3.63,1.48-4.16,1.3-1.71,3.08-1.75a5.79,5.79,0,0,1,1.78.06" transform="translate(-279.08 -282.11)"/></svg>