<svg id="台中" xmlns="http://www.w3.org/2000/svg" viewBox="0 0 209.15 102.07"><defs><style>.cls-1{fill:#93b15a;stroke:#231815;stroke-linejoin:round;}</style></defs><path class="cls-1" d="M429.83,233.37c4,1.95,3.95,6,5.81,10.7s14.38,1.48,20.71,2.35.74,6.94-2,9.55-7.68,8.92-10.53,12.15-1.74,10.29-1.37,13.76,2.36,8.06,2.85,9.79,1.49,4.09-1.61,5.33-4.46,2.61-7.81,1.86-13.76-1.36-18.72-1.61-8.31-5.08-12.4-10.54-5.95-5-8.67-1.48-7.2,3.47-8.81,3.34a4.06,4.06,0,0,0-4.21,3.6c-.37,2.6-1.49,3.47-5.58,4s-5.21,3.34-8.43,5.2-1.61-.87-5.83,1.37a17.37,17.37,0,0,1-12,1.48c-3.72-.74-4.47,3.23-7,6.33s-6.2-.5-9.67-1.86-5,1.86-6.94,5.45-3,5-5.21,8.56-2.85,7.56-4.83,10-4.09,1.61-7.81,1.49-11.16-1.12-15.5-3.48a18.08,18.08,0,0,0-8.31-2.23s0,.75-.74-1.61S275.45,316.66,270.4,314s-4.32-3.78-7.92-5.76-4.86-5.4-6.48-8.82a5,5,0,0,0-4.86-3.06s-.72-.9,3.78-5.95,9.18-15.3,10.8-22S276.37,247,276.37,247s7.6,4.26,9.73,6.39,12.75,6.85,16.55,9.05,6.59,1.6,13.78-1S329,255.23,333,256.83s6.2,6.49,11.59,6.94,8-.35,9.51.84,8.06-.59,9.46,0,1.6,2.6,6.59,1.8,4.59,2.4,9.19-1.8,2.79,1,7.79-4,7-3.39,7-3.39,1.59-4.4,5.19-5.4,4-3,6.19-2.79,8.8,2.84,11.17-8.37a65.3,65.3,0,0,0,8.3-4.2C428.76,234.12,429.83,233.37,429.83,233.37Z" transform="translate(-250.6 -232.87)"/></svg>