<svg id="台南" xmlns="http://www.w3.org/2000/svg" viewBox="0 0 127.72 118.88"><defs><style>.cls-1{fill:#93b15a;stroke:#231815;stroke-linejoin:round;}</style></defs><path class="cls-1" d="M178.7,491.63h0s10.54-.56,15.44,1.88,7-2.07,8.66-3.76,4.89.75,6.4-3.2,3.57-8.66,6.77-9.79,9.23-4.33,13-6.21,10.16-2.26,13.55-1.51,5.27-.75,8.29-1.5,5.08-.57,6.77,1.5a40.22,40.22,0,0,0,9.6,7.34c3.2,1.7,4.71,1.51,4.52,6.4s2.07,12.62,4.33,17.32,3.58,12.42,7.34,10.17,3.94-5.63,7.34-2.64c4.52,4,8.51,1.31,8.51,1.31.23,14.29-3,14.13-6.44,17.14S277,544.71,273,547.91s-2.83,9-5.46,11.67-10,4.14-10.92,9.41-3.2,6.4-6.21,6.22-3.95,3.76-5.08,6.4-3.58,1.13-8.1,2.82-16.28-.47-25-4.14-12.05,2.45-12.05,2.45S185.85,558.45,180,559s-5.84-16.57-5.46-22.4-2.82-6.4-1.88-11.3,6-33.69,6-33.69" transform="translate(-172 -466.63)"/></svg>