<svg id="台東" xmlns="http://www.w3.org/2000/svg" viewBox="0 0 154.9 274.09"><defs><style>.cls-1{fill:#93b15a;stroke:#231815;stroke-linejoin:round;}</style></defs><path class="cls-1" d="M334.37,584.84" transform="translate(-336.81 -442.91)"/><path class="cls-1" d="M378.61,716.51a133.16,133.16,0,0,1,1.88-19.7c1.69-8.47,2.26-8.1,5.93-11.77s7.9-32.47,10.16-40.09S413,620.1,426.23,605.7s11.58-18.63,11.86-26,7.34-3.94,12.14-6.2,16.38-25.69,24.85-40.09,3.67-18.92,2.54-24.59,7.62-26.52,11-38.72,2-14.9,2.54-20.53-5.93-7.08-10.45-5.67-9.6,5.93-9.88,8.43-.56,11.06-3.1,19-9.6,35-14.4,42.07-13,0-19.49-6.21-6.77-6.49-15.53-6.78-28.23-17.85-28.23-17.85c-3.2-1.7-5.84,2.26-12.61,5.65s-9.79,10.73-14.5,17.88-2.63,11.67-3.65,20.7,1.39,18.45-4.44,24.29-4.33,12.61-2.82,16.56,4.7,13.74,4.7,13.74,6.21,5.93,7.91,9.88,6.21,15,0,18.64-12.71,8.75-15.25,8.75-3.95.57-5.65,5.93-3.67,16.38-5.36,18.92-1.7,7.62,1.69,17.22,6.87,20.8,5.93,26.45-2.26,6.4,1.7,8.66,5.27,1.51,6.58,7.34,2.26,9.6,8.48,10.92,15.81,2.45,15.81,2.45" transform="translate(-336.81 -442.91)"/></svg>