<svg id="嘉義市" xmlns="http://www.w3.org/2000/svg" viewBox="0 0 36.79 28.78"><defs><style>.cls-1{fill:#93b15a;stroke:#231815;stroke-linejoin:round;}</style></defs><path class="cls-1" d="M258.93,438.65a1.4,1.4,0,0,0-1-1.49,5.72,5.72,0,0,0-5.09.45c-2.64,1.88-3.2,4.14-6.78,4.89s-3.2,2.45-4.52,4.71-2.82,5.46-2.82,8.09,3.39,0,7.9.94,9,2.26,8.29,3.77,1.88,2.07,5.46,2.07,3,.56,4,1.88,6,0,6,0,1.84-.46,1.7-3.76c-.21-4.82,1.31-5.28,2.07-7.53s.56-4.33-1.51-5.27a25.1,25.1,0,0,1-4.52-2.45c-1.31-.94-3.76.75-6-.57C260,443.18,258.59,442.13,258.93,438.65Z" transform="translate(-238.25 -436.27)"/></svg>