<svg id="嘉義" xmlns="http://www.w3.org/2000/svg" viewBox="0 0 181.63 95.34"><defs><style>.cls-1{fill:#93b15a;stroke:#231815;stroke-linejoin:round;}</style></defs><path class="cls-1" d="M315.37,418.1s-1.33,8.21-4.72,9.15-16.56-.94-19.95-.94-12.61.94-14.87,1.7-3-1.7-6.4-1.51-6-6.78-9.6-9-11.67-.57-15.06.18-10.35,4.33-12.42,5.84-6.59,5.08-9.79,5.83-6,6.59-8.47,9-5.65.56-7.91,1.88-5.46-.37-6,1.32-1.69,7-5.27,7.72-10.73-.76-12-2.07-4.14-1.13-4.14-1.13a24.47,24.47,0,0,1,3.39,15.43c-.94,9.23-3.39,26.73-3.39,28.43v1.69s10.54-.56,15.44,1.88,7-2.07,8.66-3.76,4.89.75,6.4-3.2,3.57-8.66,6.77-9.79,9.23-4.33,13-6.21,10.16-2.26,13.55-1.51,5.27-.75,8.29-1.5,5.08-.57,6.77,1.5a40.22,40.22,0,0,0,9.6,7.34c3.2,1.7,4.71,1.51,4.52,6.4s2.07,12.62,4.33,17.32,3.58,12.42,7.34,10.17,3.95-5.65,7.34-2.64,8.47,3.77,11.67-2.45,4.71-11.29,12.05-15.24,12.05-7.72,18.45-14.12a181.65,181.65,0,0,1,16.94-14.68c3.2-2.45,9.52-10.1,9.52-10.1-1.46-1.81-6.82-1.26-11.21-1.33s-4.95-4.38-8.71-8.42-2.93-11.08-3.76-13-5.92-6.27-10-6.62-11.08-1.53-10.17-3.55" transform="translate(-178.2 -415.83)"/></svg>