<svg id="基隆" xmlns="http://www.w3.org/2000/svg" viewBox="0 0 40.05 29.42"><defs><style>.cls-1{fill:#93b15a;stroke:#231815;stroke-linejoin:round;}</style></defs><path class="cls-1" d="M537.59,82.45a18.85,18.85,0,0,0-8-2.14c-7.19.31-11.17-.92-13.92-2.75,0,0-3.62-3.72-5.82-3.67,0,0-1.61,6.8-5.86,6.56s-5.93-.3-5.39,4,5.24,6.79,7.4,10.11,3.86,6.32,11.41,7.32,11.88.08,12.8-1.31-.77-3.24-3.77-5.4-2.16-9.25,3-9.48,5-.39,6.25-1.16A5.62,5.62,0,0,0,537.59,82.45Z" transform="translate(-498.04 -73.39)"/></svg>