<svg id="宜蘭" xmlns="http://www.w3.org/2000/svg" viewBox="0 0 142.53 146.25"><defs><style>.cls-1{fill:none;stroke-miterlimit:10;}.cls-1,.cls-2{stroke:#231815;}.cls-2{fill:#93b15a;stroke-linejoin:round;}</style></defs><path class="cls-1" d="M459.16,248.31" transform="translate(-429.21 -110.68)"/><path class="cls-1" d="M493.34,437" transform="translate(-429.21 -110.68)"/><path class="cls-1" d="M536.25,256.43" transform="translate(-429.21 -110.68)"/><path class="cls-2" d="M459.16,248.31c-.24-.85-1.36-1.55-3.11-1.78l.2,0c-6.32-.87-18.84,2.36-20.7-2.35s-1.84-8.75-5.82-10.7c0,0-.52,0,3.18-2.76,5.13-3.85,8.24-8.57,11-11.87s5.42-7.52,4.62-11.38l-.79-3.86s10-12.06,11.55-16.14,1.82-5.53,1.25-7.14l-.56-1.62c4.61,1.92,4.33-.13,10.29-2.45s9.25-4,11.91-4c5.06.08,5-8.61,4.64-10.93s.33-5.29,5.29-7.61,10.6-5.29,11.26-6.29,1.65-1.65,5-2.64,8-8.61,10.92-9.27,6.19-1.44,6.65-2.66.31-4.13,4-4.29,7.19-1.68,8-2.6-.15-4.59,5.51-7.49,6.73-4,10.71-3.83,4.13-2.29,6.43-2.75,8.26.3,10.71-.77c0,0-11.46,7.35-18.23,16.58s-10.17,19.12-10.73,26.18,2.54,18.63,3.1,23.43,1.13,7.91,4.24,10.73,11.29,4.52,9.6,8.47-5.93,9.6-5.93,13.56,1.13,9-2.26,11-2.07,5.31-2.26,7-.94,4-4.7,8.28-4.71,4.9-5.09,7.91-.15,8.69-3.26,10.2c-2-2.05-9.48-.06-18.67-2.27-11-2.64-11.57-.74-17.22,2.65s-18.35.84-24-3.67-16.67-2.89-16.67-2.89" transform="translate(-429.21 -110.68)"/></svg>