<svg id="彰化" xmlns="http://www.w3.org/2000/svg" viewBox="0 0 98.46 91.22"><defs><style>.cls-1{fill:#93b15a;stroke:#231815;stroke-linejoin:round;}</style></defs><path class="cls-1" d="M286,328.59s0,.74-.74-1.61-9.81-10.22-14.86-12.92-4.32-3.79-7.92-5.77-4.86-5.4-6.48-8.82a5,5,0,0,0-4.86-3.06s-1.24.24-5.47,9.08S236.45,325,232.8,328.7s-10.57,8.89-13.07,16-5.58,20.95-10.77,26.14-6.72,8.07-6.72,8.07a57,57,0,0,1,7.3,3.08c3.27,1.73,4.61,2.69,11.53,0s11.34-4.23,15.57-3.46,8.84,2.88,16.72,3.65,9.81,3.65,15.19,3.46,13.38,1.15,17.45,1,3.69-1.92,7.15-2.3a7.21,7.21,0,0,0,5.57-3.85c.77-1.15,3.08-4-4-3.65s-12.21-7.36-11.4-12.72.13-18.92-.94-21.33-3.22-5.75-2.69-8.31.54-3.63,1.48-4.16,1.3-1.81,3.08-1.75Z" transform="translate(-201.74 -295.9)"/></svg>