<svg id="新北" xmlns="http://www.w3.org/2000/svg" viewBox="0 0 154.35 133.71"><defs><style>.cls-1{fill:#93b15a;stroke:#231815;stroke-linejoin:round;}</style></defs><path class="cls-1" d="M537.67,82.44c2.25,1.14,5.66,4.13,13.31,5s7.34,6.92,7.8,9.22,1.23,4.28,4.29,4.89,8.41,2.45,9.64,3.83a3.78,3.78,0,0,1-1.38,5.66c-2.45,1.07-8.42.31-10.71.77s-2.45,2.9-6.43,2.75-5.05.92-10.71,3.83-4.74,6.58-5.51,7.49-4.28,2.45-8,2.61-3.52,3.06-4,4.28-3.67,2-6.65,2.66-7.61,8.27-10.92,9.27-4.31,1.65-5,2.64-6.29,4-11.25,6.29-5.63,5.3-5.3,7.62.42,11-4.63,10.92c-2.67-.05-6,1.65-11.92,4s-5.68,4.37-10.29,2.45c-4.23-1.76-5.59-9.73-7.58-12.71s-2.65-10.26-2.65-15.89-5-3.31-11.91-3.31-6.62-3-7.67-6.62-1.6-6.29-3.92-7.28-1.65-4-3-7.28-1-5.3,6.89-6.29,5.68-6.29,7.67-7.61,3-11.92,0-13.57-3.64-4.63-5-5-6.62-1.65-6.95-3.64-5.29-2-5.29-2-3-2.81,3.81-3.62,8.26-3.4,9.87-3.72,4.38,1.13,6.64-2.27,2.92-10.19,4.37-10.68,2.59-2.75,3.4-4.21,7.61-7,9.88-7.28,2.59-1.14,4.53-2.76,7.12-2.91,7.77-4,9.07-4.38,12.31,0,4.37,14.57,7.44,14.24,8.42-.65,11,2.59S506.65,74,510,73.88c2.2-.06,5.82,3.66,5.82,3.66,2.75,1.84,6.73,3.06,13.92,2.76A18.89,18.89,0,0,1,537.67,82.44Z" transform="translate(-419.6 -46.15)"/></svg>