<svg id="新竹" xmlns="http://www.w3.org/2000/svg" viewBox="0 0 118.12 113.91"><defs><style>.cls-1{fill:#93b15a;stroke:#231815;stroke-linejoin:round;}</style></defs><path class="cls-1" d="M447.87,203.5c-2.72-3.56-11.72-9-16.14-11.21s-9.17-4.42-9.51-15.46-3.48-14.73-7.29-16.64-14.84-4.87-20.14-7.84-5.3-6.15-5.93-8.27-10.18-4.87-12.51-6.61-6.14-6.1-11.23-7.8a46,46,0,0,0-11-1.91s-12,8.86-14.6,19.08-6.11,15.34-6.77,17.32-2,8.41,0,11.21c0,0,2,4.95,11.55,7.09s18.14,9.73,20.78,13.52,8.08,7.1,15.17,8.58,18,1,25.06,7.91,7.59,7.1,10.89,10.23,3.46,7.42,2,12.7l-1.49,5.27s12-5.27,16.33-10,8.25-8.58,11.05-11.88,5.41-7.52,4.62-11.38Z" transform="translate(-331.19 -127.26)"/></svg>