<svg id="桃園" xmlns="http://www.w3.org/2000/svg" viewBox="0 0 107.85 117.21"><defs><style>.cls-1{fill:#93b15a;stroke:#231815;stroke-linejoin:round;}</style></defs><path class="cls-1" d="M460.11,178.6c-4.23-1.76-5.59-9.73-7.58-12.71s-2.65-10.26-2.65-15.89-5-3.31-11.91-3.31-6.62-3-7.67-6.62-1.6-6.29-3.92-7.28-1.65-4-3-7.28-1-5.3,6.89-6.29,5.68-6.29,7.67-7.61,3-11.92,0-13.57-3.64-4.63-5-5-6.62-1.65-6.95-3.64-5.29-2-5.29-2-6.66-1.28-17.41,3.65-23.82,16.53-27.21,16.74-5.3-1.33-9.33,5.16-11.87,12.64-12.71,14.76a46,46,0,0,1,11,1.91c5.09,1.7,8.9,6.06,11.23,7.8s11.87,4.5,12.51,6.61.63,5.3,5.93,8.27,16.32,5.94,20.14,7.84,6.95,5.6,7.29,16.64,5.09,13.25,9.51,15.46,13.42,7.65,16.14,11.21c0,0,10-12.06,11.55-16.14s1.82-5.53,1.26-7.14Z" transform="translate(-353.6 -86.8)"/></svg>