<svg id="花蓮" xmlns="http://www.w3.org/2000/svg" viewBox="0 0 160.31 269.46"><defs><style>.cls-1{fill:#93b15a;stroke:#231815;stroke-linejoin:round;}</style></defs><path class="cls-1" d="M436,298.9" transform="translate(-376.54 -247.39)"/><path class="cls-1" d="M437.14,299.08" transform="translate(-376.54 -247.39)"/><path class="cls-1" d="M393.28,440.63" transform="translate(-376.54 -247.39)"/><path class="cls-1" d="M387.91,470.14" transform="translate(-376.54 -247.39)"/><path class="cls-1" d="M459.25,248.18s11-1.63,16.67,2.89,18.36,7.05,24,3.67,6.22-5.29,17.23-2.64,19.48-.45,19.2,4.2.56,10-8.76,16.48-12.7,4.44-11.29,11.13,0,12.61-2.26,19.39-2.54,9.88-2,16.94-1.13,8.19-4.52,16.38-6.21,37.55-7.06,43.76-5.37,40.1-7.91,45.18-1.41,7.06.85,11.29.79,9.31-2.14,9.46l-.65.08c-1.69-2.92-6.35-3.53-9.84-2.44-4.51,1.41-9.6,5.93-9.88,8.42s-.56,11.06-3.1,19-9.6,35-14.4,42.07-13,0-19.49-6.21-6.77-6.49-15.53-6.77-28.23-17.86-28.23-17.86v-.42s.38-11.37-2.26-11.94-8.85.51-9.79-3-2.44-5.43,1.51-7.12,9-3,8.47-4.89-4.59-3-4.59-3h0V452c3.6-.26,9.08-9,9.61-11.24s1.67-6,5.1-6.52,10.3.18,11.36-2.11.44-6.69,3.52-9.77,7.13-3.08,8.19-6.52,4-19.19,4.4-21.39,1.14-9.5-2.2-11-6.78-4.14-4.05-8.72,9.07-15.31,9.68-19.28,1.85-12.85,1.68-15.49-1.5-4.49-2-7.22a13.73,13.73,0,0,1,2.64-10.83c3-4.13,8.37-10.11,8.45-13.33s-.3-9.19-2.26-9.36v-.09c2.41.13,3.55-1,6.18-2.07,3.1-1.24,2.11-3.6,1.61-5.33s-2.48-6.33-2.85-9.8-1.49-10.54,1.37-13.76,7.81-9.55,10.53-12.15c2.1-2,5.51-5.52,4.81-7.82" transform="translate(-376.54 -247.39)"/></svg>