<svg id="苗栗" xmlns="http://www.w3.org/2000/svg" viewBox="0 0 143.69 92.46"><defs><style>.cls-1{fill:#93b15a;stroke:#231815;stroke-linejoin:round;}</style></defs><path class="cls-1" d="M416.67,240.67l1.49-5.27c1.48-5.28,1.32-9.57-2-12.7s-3.79-3.3-10.89-10.23-18-6.43-25.06-7.91-12.53-4.78-15.17-8.58-11.22-11.38-20.78-13.52-11.55-7.09-11.55-7.09-8.31,7.19-11.36,15.93-8.94,3-13.62,7.93S294,209.86,287.32,225.38,276.37,247,276.37,247s7.6,4.26,9.73,6.39,12.75,6.85,16.55,9.05,6.59,1.6,13.78-1S329,255.23,333,256.83s6.2,6.49,11.59,6.94,8-.35,9.51.84,8.06-.59,9.46,0,1.6,2.6,6.59,1.8,4.59,2.4,9.19-1.8,2.79,1,7.79-4,7-3.39,7-3.39,1.59-4.4,5.19-5.4,4-3,6.19-2.79S414.3,251.88,416.67,240.67Z" transform="translate(-275.87 -174.87)"/></svg>