<svg id="雲林" xmlns="http://www.w3.org/2000/svg" viewBox="0 0 137.6 72.15"><defs><style>.cls-1{fill:none;}.cls-1,.cls-2{stroke:#231815;stroke-linejoin:round;}.cls-2{fill:#93b15a;}</style></defs><path class="cls-1" d="M291.81,392.74" transform="translate(-178.2 -377.83)"/><path class="cls-2" d="M310.52,427.28c3.39-.94,4.72-9.16,4.72-9.16h0c.61-2.1-3.07-.69-6.06-1.11s-4.53,1.25-8.29,1.74-7.94-.84-10-.84.41-11.42.35-14.62-.16-8.5.53-10.52v-.12c.7-2-.89-1.36-1.45-3.38s-4.27-2.64-4.35-2.65h0c-4.07.19-12.07-1.15-17.45-1s-7.31-2.69-15.19-3.46-12.49-2.88-16.72-3.65-8.65.77-15.57,3.46-8.26,1.73-11.53,0a57,57,0,0,0-7.3-3.08s-8.67,13.71-10.17,18-8.85,15.06-9,17.5a97.13,97.13,0,0,1-1.69,10.17,30,30,0,0,0-.76,7.9c0,3.77-1.88,13.56-1.88,13.56s2.82-.19,4.14,1.13,8.47,2.82,12,2.07,4.71-6,5.27-7.72,3.76,0,6-1.32,5.46.57,7.91-1.88,5.27-8.28,8.47-9,7.73-4.32,9.79-5.83,9-5.08,12.42-5.84,11.48-2.44,15.06-.18,6.21,9.22,9.6,9,4.14,2.26,6.4,1.51,11.48-1.7,14.87-1.7,16.57,1.89,19.95.94" transform="translate(-178.2 -377.83)"/></svg>