<svg id="高雄" xmlns="http://www.w3.org/2000/svg" viewBox="0 0 190.79 225.8"><defs><style>.cls-1{fill:#93b15a;stroke:#231815;stroke-linejoin:round;}</style></defs><path class="cls-1" d="M383.42,452s4,1.28,4.6,3.16-4.52,3.2-8.47,4.9-2.45,3.57-1.51,7.12,7.16,2.48,9.79,3,2.26,12.43,2.26,12.43c-3.2-1.7-5.84,2.25-12.61,5.64S367.69,499,363,506.12s-2.63,11.68-3.65,20.71,1.39,18.45-4.44,24.28-4.33,12.61-2.82,16.57,4.7,13.74,4.7,13.74l-5.08-1.64c-5.08-1.65-5.65.13-9.79,3.14s-5.08,3.39-7.53,2-4.52-6.5-9-2.55-8.1,1.32-9.42,0-3.76-3.39-7-2.26-8.09,1.32-11.32,1.51-7.32,7-10.33,10.35-5.27,3.39-12,3.2-7,1.51-9.6,4-1.32,14.87-1.32,30.07,3.2,11.72,3.95,21.51-7.39,25-7.39,25c-13.83-6.49-18.77-13.55-25.05-24s-11.23-5.08-12.36-11.29,3.39-13,0-20c-3.23-6.74-21.42-35-23.06-37.57l-.12-.18s3.29-6.12,12.05-2.45,20.51,5.84,25,4.14,7-.19,8.1-2.82,2.07-6.59,5.08-6.4,5.27-.94,6.21-6.21,8.28-6.78,10.92-9.42,1.5-8.47,5.46-11.67S289.54,529,292.93,526s6.67-2.85,6.44-17.14l.94-.78a14.44,14.44,0,0,0,2.22-3c3.2-6.21,4.71-11.29,12.05-15.24s12-7.72,18.44-14.12A181.48,181.48,0,0,1,350,461c3.2-2.45,9.52-10.1,9.52-10.1h-.08c1.46,1.81,20.41,1.29,24,1" transform="translate(-199.82 -450.43)"/></svg>